<?xml version="1.0" standalone="no"?>
<!DOCTYPE svg PUBLIC "-//W3C//DTD SVG 20010904//EN"
 "http://www.w3.org/TR/2001/REC-SVG-20010904/DTD/svg10.dtd">
<svg version="1.0" xmlns="http://www.w3.org/2000/svg"
 width="512.000000pt" height="512.000000pt" viewBox="0 0 512.000000 512.000000"
 preserveAspectRatio="xMidYMid meet">
<metadata>
Created by potrace 1.14, written by Peter Selinger 2001-2017
</metadata>
<g transform="translate(0.000000,512.000000) scale(0.100000,-0.100000)"
fill="#000000" stroke="none">
<path d="M1815 4441 c-48 -15 -87 -45 -112 -84 -25 -38 -28 -53 -33 -157 l-5
-115 -140 -1 c-156 -1 -197 -13 -248 -74 -39 -45 -47 -90 -47 -245 0 -115 4
-147 19 -181 l19 -41 -172 -1 c-95 -1 -183 -5 -196 -10 -34 -13 -56 -40 -68
-84 -8 -30 -7 -44 9 -75 34 -69 28 -68 389 -71 179 -1 330 -4 335 -6 6 -2 11
-32 10 -67 l0 -63 -53 -2 c-69 -3 -95 -10 -161 -41 -76 -37 -129 -95 -183
-201 -26 -50 -71 -137 -101 -194 -30 -57 -71 -137 -92 -178 -21 -41 -44 -82
-51 -90 -6 -8 -14 -22 -15 -30 -2 -8 -29 -61 -59 -117 l-55 -103 -213 0 c-169
0 -220 -3 -250 -15 -47 -20 -79 -50 -105 -100 -20 -39 -21 -55 -21 -436 -1
-218 2 -414 7 -436 9 -48 57 -107 105 -132 45 -23 31 -21 155 -21 l102 0 14
-57 c36 -161 167 -291 329 -329 82 -19 562 -19 643 0 161 37 296 171 329 325
l13 61 593 0 594 0 0 -25 c0 -35 38 -133 71 -180 55 -81 130 -137 227 -171 64
-21 81 -23 357 -23 282 0 292 1 362 24 107 37 185 99 244 194 18 31 59 144 59
166 0 13 24 15 153 15 83 0 169 5 189 10 49 14 94 53 120 104 21 40 22 53 22
376 0 321 -1 337 -22 380 -47 101 -113 139 -302 174 -14 2 -70 14 -125 26 -55
12 -107 23 -115 24 -8 2 -28 6 -45 9 -16 4 -46 9 -65 12 -19 3 -46 7 -60 10
-14 2 -52 7 -85 10 -33 3 -60 7 -61 8 0 1 -44 86 -97 188 -52 102 -113 219
-135 260 -22 41 -67 127 -101 192 -81 156 -81 155 -119 198 -59 65 -155 107
-265 114 -23 2 -44 4 -47 4 -3 1 -6 30 -5 66 l0 65 120 1 c505 2 549 3 577 22
81 55 58 192 -36 213 -17 4 -109 7 -203 6 -95 0 -173 1 -173 3 0 1 7 20 16 41
12 28 17 70 16 149 0 125 -11 162 -62 212 -52 51 -93 59 -287 58 l-173 0 -1
95 c-1 239 -16 279 -124 330 -38 19 -67 20 -565 19 -289 -1 -534 -4 -545 -8z
m240 -1208 c1 -50 -2 -63 -14 -64 -77 -4 -213 -4 -219 0 -4 4 -8 34 -8 69 l0
63 121 -3 120 -3 0 -62z m481 0 c1 -51 -2 -63 -15 -64 -23 -1 -172 -1 -201 0
-25 1 -26 3 -25 66 l0 66 120 -3 120 -3 1 -62z m479 -4 l1 -65 -113 1 c-62 0
-115 4 -119 8 -4 4 -8 34 -9 67 l0 61 120 -3 120 -3 0 -66z"/>
</g>
</svg>
